<?xml version="1.0" encoding="UTF-8" standalone="no"?>
<svg
   xmlns:dc="http://purl.org/dc/elements/1.1/"
   xmlns:cc="http://creativecommons.org/ns#"
   xmlns:rdf="http://www.w3.org/1999/02/22-rdf-syntax-ns#"
   xmlns:svg="http://www.w3.org/2000/svg"
   xmlns="http://www.w3.org/2000/svg"
   xmlns:sodipodi="http://sodipodi.sourceforge.net/DTD/sodipodi-0.dtd"
   xmlns:inkscape="http://www.inkscape.org/namespaces/inkscape"
   aria-hidden="true"
   focusable="false"
   data-prefix="fas"
   data-icon="envelope"
   class="svg-inline--fa fa-envelope fa-w-16"
   role="img"
   viewBox="0 0 512 512"
   version="1.1"
   id="svg4"
   sodipodi:docname="envelope.svg"
   inkscape:version="1.0.2-2 (e86c870879, 2021-01-15)">
  <metadata
     id="metadata10">
    <rdf:RDF>
      <cc:Work
         rdf:about="">
        <dc:format>image/svg+xml</dc:format>
        <dc:type
           rdf:resource="http://purl.org/dc/dcmitype/StillImage" />
      </cc:Work>
    </rdf:RDF>
  </metadata>
  <defs
     id="defs8" />
  <sodipodi:namedview
     pagecolor="#ffffff"
     bordercolor="#666666"
     borderopacity="1"
     objecttolerance="10"
     gridtolerance="10"
     guidetolerance="10"
     inkscape:pageopacity="0"
     inkscape:pageshadow="2"
     inkscape:window-width="1920"
     inkscape:window-height="1001"
     id="namedview6"
     showgrid="false"
     inkscape:zoom="1.6210938"
     inkscape:cx="256"
     inkscape:cy="254.76627"
     inkscape:window-x="-9"
     inkscape:window-y="-9"
     inkscape:window-maximized="1"
     inkscape:current-layer="svg4" />
  <path
     fill="currentColor"
     d="M502.3 190.8c3.9-3.1 9.7-.2 9.7 4.7V400c0 26.5-21.5 48-48 48H48c-26.5 0-48-21.5-48-48V195.6c0-5 5.7-7.8 9.7-4.7 22.4 17.4 52.1 39.5 154.1 113.6 21.1 15.4 56.7 47.8 92.2 47.6 35.7.3 72-32.8 92.3-47.6 102-74.1 131.6-96.3 154-113.7zM256 320c23.2.4 56.6-29.2 73.4-41.4 132.7-96.3 142.8-104.7 173.4-128.7 5.8-4.5 9.2-11.5 9.2-18.9v-19c0-26.5-21.5-48-48-48H48C21.5 64 0 85.5 0 112v19c0 7.4 3.4 14.3 9.2 18.9 30.6 23.9 40.7 32.4 173.4 128.7 16.8 12.2 50.2 41.8 73.4 41.4z"
     id="path2" />
  <path
     style="fill:#ffffff;stroke-width:0.616867"
     d="M 40.608914,447.21768 C 22.080298,444.07135 7.7766471,431.37854 2.0405254,412.99277 L 0.30843373,407.44096 0.12685232,302.26506 c -0.0998698,-57.84675 -0.0120754,-106.10909 0.19509871,-107.24964 0.53077504,-2.92208 2.81677387,-5.02024 5.46968747,-5.02024 1.8459957,0 4.9373945,2.10214 22.0810515,15.01502 22.437511,16.9003 56.415748,41.902 101.97791,75.03689 16.96386,12.33689 37.50554,27.46321 45.6482,33.61402 22.80084,17.22337 30.45394,22.28586 43.53436,28.79776 32.54412,16.20161 58.45272,12.58297 96.80298,-13.52045 4.24097,-2.88664 12.84627,-9.18525 19.1229,-13.99691 6.27662,-4.81165 25.84674,-19.26234 43.48915,-32.11262 60.33723,-43.94809 95.48459,-69.93498 117.51326,-86.88571 6.6156,-5.09061 8.04339,-5.93442 10.05213,-5.94069 2.85712,-0.009 5.11527,1.98949 5.66449,5.01293 0.20719,1.14055 0.29297,49.2641 0.19065,106.94121 l -0.18606,104.86747 -1.38304,4.93494 c -4.72206,16.84924 -16.73178,29.14804 -33.56678,34.37475 l -4.52079,1.40356 -214.36145,0.0847 c -117.89879,0.0466 -215.657553,-0.13537 -217.241686,-0.40438 z"
     id="path835" />
  <path
     style="fill:#ffffff;stroke-width:0.616867"
     d="M 246.84611,318.60633 C 233.60719,314.89833 221.2331,307.57232 196.05253,288.53428 187.80147,282.29598 168.69783,268.20832 153.6,257.22836 67.983483,194.96342 13.322773,153.96524 6.6729349,147.02594 3.4747797,143.68858 1.2236084,138.8187 0.49261599,133.65629 0.14118641,131.17442 0.00222066,123.81992 0.1759319,116.89639 0.4525547,105.87114 0.66027341,103.96859 2.1290463,99.007229 6.9826492,82.612276 19.034919,70.650267 35.504786,65.881446 l 4.900033,-1.418795 H 256 471.59518 l 4.81106,1.394387 c 16.82371,4.876004 29.27347,17.522253 33.84968,34.383922 1.19556,4.4052 1.3445,6.55728 1.38749,20.0482 0.0462,14.50034 -0.0116,15.27078 -1.42585,18.99767 -0.87223,2.29856 -2.60394,5.14117 -4.24166,6.96271 -6.20549,6.902 -52.35657,41.66986 -139.55662,105.1348 -19.50844,14.19841 -42.23108,30.92543 -50.49476,37.17116 -22.88265,17.29481 -34.8223,24.6546 -46.74374,28.81358 -6.09266,2.12552 -17.00495,2.73002 -22.33467,1.23725 z"
     id="path837" />
</svg>
