<?xml version="1.0" encoding="UTF-8" standalone="no"?>
<svg
   xmlns:dc="http://purl.org/dc/elements/1.1/"
   xmlns:cc="http://creativecommons.org/ns#"
   xmlns:rdf="http://www.w3.org/1999/02/22-rdf-syntax-ns#"
   xmlns:svg="http://www.w3.org/2000/svg"
   xmlns="http://www.w3.org/2000/svg"
   xmlns:sodipodi="http://sodipodi.sourceforge.net/DTD/sodipodi-0.dtd"
   xmlns:inkscape="http://www.inkscape.org/namespaces/inkscape"
   aria-hidden="true"
   focusable="false"
   data-prefix="fas"
   data-icon="map-marked-alt"
   class="svg-inline--fa fa-map-marked-alt fa-w-18"
   role="img"
   viewBox="0 0 576 512"
   version="1.1"
   id="svg4"
   sodipodi:docname="map.svg"
   inkscape:version="1.0.2-2 (e86c870879, 2021-01-15)">
  <metadata
     id="metadata10">
    <rdf:RDF>
      <cc:Work
         rdf:about="">
        <dc:format>image/svg+xml</dc:format>
        <dc:type
           rdf:resource="http://purl.org/dc/dcmitype/StillImage" />
      </cc:Work>
    </rdf:RDF>
  </metadata>
  <defs
     id="defs8" />
  <sodipodi:namedview
     pagecolor="#ffffff"
     bordercolor="#666666"
     borderopacity="1"
     objecttolerance="10"
     gridtolerance="10"
     guidetolerance="10"
     inkscape:pageopacity="0"
     inkscape:pageshadow="2"
     inkscape:window-width="1920"
     inkscape:window-height="1001"
     id="namedview6"
     showgrid="false"
     inkscape:zoom="1.6210938"
     inkscape:cx="288"
     inkscape:cy="254.76627"
     inkscape:window-x="-9"
     inkscape:window-y="-9"
     inkscape:window-maximized="1"
     inkscape:current-layer="svg4" />
  <path
     fill="currentColor"
     d="M288 0c-69.59 0-126 56.41-126 126 0 56.26 82.35 158.8 113.9 196.02 6.39 7.54 17.82 7.54 24.2 0C331.65 284.8 414 182.26 414 126 414 56.41 357.59 0 288 0zm0 168c-23.2 0-42-18.8-42-42s18.8-42 42-42 42 18.8 42 42-18.8 42-42 42zM20.12 215.95A32.006 32.006 0 0 0 0 245.66v250.32c0 11.32 11.43 19.06 21.94 14.86L160 448V214.92c-8.84-15.98-16.07-31.54-21.25-46.42L20.12 215.95zM288 359.67c-14.07 0-27.38-6.18-36.51-16.96-19.66-23.2-40.57-49.62-59.49-76.72v182l192 64V266c-18.92 27.09-39.82 53.52-59.49 76.72-9.13 10.77-22.44 16.95-36.51 16.95zm266.06-198.51L416 224v288l139.88-55.95A31.996 31.996 0 0 0 576 426.34V176.02c0-11.32-11.43-19.06-21.94-14.86z"
     id="path2" />
  <path
     style="fill:#ffffff;stroke-width:0.616867"
     d="M 12.702845,511.32664 C 7.7847348,510.16856 3.7054412,506.88019 1.6939659,502.45224 0.61395512,500.07477 0.56628816,494.54103 0.55330668,370.03125 0.53997223,242.13623 0.55903078,240.02901 1.7643901,236.12651 c 2.1497621,-6.96012 7.1358644,-13.37887 13.5265969,-17.41316 3.082345,-1.9458 122.696173,-49.83496 123.395053,-49.40302 0.28173,0.17411 0.70045,1.08256 0.9305,2.01878 0.94986,3.86558 7.69165,19.16822 13.6807,31.05273 l 6.39754,12.69509 -0.15583,116.47211 -0.15582,116.4721 -7.09397,3.2392 C 72.081716,487.88402 21.124189,510.85068 18.970997,511.3471 c -3.099701,0.71464 -3.147036,0.71448 -6.268152,-0.0205 z"
     id="path835" />
  <path
     style="fill:#ffffff;stroke-width:0.616867"
     d="m 287.38313,479.66858 -94.68915,-31.61716 -0.15628,-90.59075 -0.15627,-90.59075 4.09741,5.82287 c 14.27054,20.27999 47.0736,61.97381 56.91869,72.34563 18.51057,19.50091 50.69437,19.50091 69.20494,0 9.69299,-10.21158 41.72689,-50.86513 56.3814,-71.55246 l 4.63059,-6.53685 v 122.21701 c 0,97.38834 -0.15665,122.20712 -0.77109,122.16831 -0.42409,-0.0268 -43.3812,-14.27642 -95.46024,-31.66585 z"
     id="path837" />
  <path
     style="fill:#ffffff;stroke-width:0.616867"
     d="m 283.66685,326.73814 c -4.2277,-1.40725 -6.31002,-3.29395 -14.41482,-13.06062 -55.01005,-66.28983 -91.88755,-124.88146 -103.08439,-163.78231 -4.19838,-14.58631 -4.89831,-26.72177 -2.46832,-42.79623 7.53978,-49.876025 44.79089,-90.806759 93.76574,-103.0278171 18.31623,-4.57058576 40.52369,-4.83060719 58.73915,-0.6877617 12.30525,2.7986534 28.93038,9.8329378 39.52862,16.7250248 33.3514,21.688559 53.84897,55.64491 57.51811,95.284664 0.41831,4.51929 0.59187,10.785 0.38569,13.9238 -2.10491,32.04435 -27.32954,80.57091 -74.66923,143.64697 -16.77702,22.35393 -39.29632,49.8397 -42.53588,51.91686 -3.9951,2.56158 -8.62512,3.23531 -12.76467,1.85742 z m 15.12833,-159.95072 c 11.5231,-2.9578 21.41882,-11.11201 26.85879,-22.132 3.63858,-7.37082 4.48485,-11.50856 4.15932,-20.33645 -0.21899,-5.93893 -0.59416,-8.32696 -1.87694,-11.94706 C 323.54453,99.977808 314.12288,90.567217 301.64372,86.110171 296.70468,84.346146 295.73718,84.211508 288,84.211508 c -7.73718,0 -8.70468,0.134638 -13.64372,1.898663 -12.47916,4.457046 -21.90081,13.867637 -26.29263,26.261739 -2.11546,5.97001 -2.67338,17.28104 -1.15219,23.35911 5.77679,23.0819 28.93865,36.94604 51.88372,31.0564 z"
     id="path839" />
  <path
     style="fill:#ffffff;stroke-width:0.616867"
     d="M 416.30843,367.75467 V 224.12621 l 18.66024,-8.49964 c 10.26314,-4.6748 41.56145,-18.93225 69.55181,-31.68323 45.77314,-20.8519 51.26818,-23.20893 54.6362,-23.4355 4.75325,-0.31977 9.19303,1.46155 12.34871,4.95451 4.28399,4.74186 3.95485,-6.60661 3.95485,136.3625 0,143.19643 0.30161,132.17142 -3.82934,139.97524 -2.25482,4.25961 -8.33316,10.24607 -12.59728,12.40686 -2.81314,1.42553 -141.68031,57.17618 -142.41796,57.17618 -0.16897,0 -0.30723,-64.6328 -0.30723,-143.62846 z"
     id="path841" />
</svg>
