<?xml version="1.0" encoding="UTF-8" standalone="no"?>
<svg
   xmlns:dc="http://purl.org/dc/elements/1.1/"
   xmlns:cc="http://creativecommons.org/ns#"
   xmlns:rdf="http://www.w3.org/1999/02/22-rdf-syntax-ns#"
   xmlns:svg="http://www.w3.org/2000/svg"
   xmlns="http://www.w3.org/2000/svg"
   xmlns:sodipodi="http://sodipodi.sourceforge.net/DTD/sodipodi-0.dtd"
   xmlns:inkscape="http://www.inkscape.org/namespaces/inkscape"
   aria-hidden="true"
   focusable="false"
   data-prefix="fas"
   data-icon="phone-alt"
   class="svg-inline--fa fa-phone-alt fa-w-16"
   role="img"
   viewBox="0 0 512 512"
   version="1.1"
   id="svg4"
   sodipodi:docname="phone.svg"
   inkscape:version="1.0.2-2 (e86c870879, 2021-01-15)">
  <metadata
     id="metadata10">
    <rdf:RDF>
      <cc:Work
         rdf:about="">
        <dc:format>image/svg+xml</dc:format>
        <dc:type
           rdf:resource="http://purl.org/dc/dcmitype/StillImage" />
      </cc:Work>
    </rdf:RDF>
  </metadata>
  <defs
     id="defs8" />
  <sodipodi:namedview
     pagecolor="#ffffff"
     bordercolor="#666666"
     borderopacity="1"
     objecttolerance="10"
     gridtolerance="10"
     guidetolerance="10"
     inkscape:pageopacity="0"
     inkscape:pageshadow="2"
     inkscape:window-width="1920"
     inkscape:window-height="1001"
     id="namedview6"
     showgrid="false"
     inkscape:zoom="1.6210938"
     inkscape:cx="256"
     inkscape:cy="254.76627"
     inkscape:window-x="-9"
     inkscape:window-y="-9"
     inkscape:window-maximized="1"
     inkscape:current-layer="svg4" />
  <path
     fill="currentColor"
     d="M497.39 361.8l-112-48a24 24 0 0 0-28 6.9l-49.6 60.6A370.66 370.66 0 0 1 130.6 204.11l60.6-49.6a23.94 23.94 0 0 0 6.9-28l-48-112A24.16 24.16 0 0 0 122.6.61l-104 24A24 24 0 0 0 0 48c0 256.5 207.9 464 464 464a24 24 0 0 0 23.4-18.6l24-104a24.29 24.29 0 0 0-14.01-27.6z"
     id="path2" />
  <path
     style="fill:#ffffff;stroke-width:0.616867"
     d="M 446.61205,511.36074 C 344.37955,507.82652 245.36483,469.79007 166.55422,403.77669 150.24653,390.11704 128.66615,369.05676 115.29307,353.75098 50.307041,279.37307 11.375954,188.76185 2.1819,90.48729 1.6482825,84.783493 0.94852997,72.77745 0.62689422,63.807192 0.00340739,46.41846 0.28570889,42.716646 2.6128068,37.765958 4.4803492,33.792933 9.2718006,28.868944 13.089253,26.99972 15.415812,25.860516 32.166519,21.730636 68.815089,13.26054 97.634742,6.5998373 122.74694,0.8955735 124.61997,0.58439908 c 9.41956,-1.56491275 20.02878,3.80093662 24.30591,12.29326492 0.79015,1.568851 12.50301,28.66836 26.02857,60.221131 l 24.59194,57.368675 -0.0133,5.55181 c -0.0139,5.80278 -0.95769,8.91918 -4.17056,13.77068 -0.74676,1.1276 -15.58424,13.72336 -32.97219,27.99057 -17.38795,14.26721 -31.61446,26.26932 -31.61446,26.67136 0,1.10473 8.77151,18.10346 14.0261,27.18184 35.91923,62.05787 90.27212,113.47497 153.34888,145.06598 6.01888,3.01446 9.57878,4.47449 10.07177,4.13074 0.41936,-0.29241 12.15851,-14.4673 26.08699,-31.49975 17.37958,-21.25264 26.2245,-31.58731 28.19323,-32.94184 5.39368,-3.71094 13.16905,-5.17155 19.02966,-3.57474 2.75456,0.75053 111.43659,47.17208 117.11272,50.02258 8.58316,4.31036 14.28345,14.6916 12.95831,23.59938 -0.20445,1.37437 -5.89633,26.51043 -12.6486,55.8579 -8.85344,38.47981 -12.73346,54.26737 -13.91428,56.61646 -3.97165,7.90104 -13.77381,13.37123 -23.27446,12.98852 -1.37962,-0.0556 -8.199,-0.29778 -15.15418,-0.53822 z"
     id="path835" />
</svg>
